<?xml version="1.0" encoding="UTF-8"?>
<svg id="Laag_1" data-name="Laag 1" xmlns="http://www.w3.org/2000/svg" xmlns:xlink="http://www.w3.org/1999/xlink" viewBox="0 0 600 190.01">
  <defs>
    <style>
      .cls-1 {
        fill: none;
      }

      .cls-2 {
        fill: #1d1d1b;
      }

      .cls-3 {
        clip-path: url(#clippath);
      }
    </style>
    <clipPath id="clippath">
      <rect class="cls-1" x="15.05" y="1.67" width="574.36" height="183.34"/>
    </clipPath>
  </defs>
  <g class="cls-3">
    <path class="cls-2" d="M581,33.28c1.41-.84,2.8-1.65,4.17-2.43-.68-1.18-1.39-2.4-2.12-3.66-.73-1.25-1.43-2.47-2.12-3.66h8.48v-9.71h-8.48c.68-1.18,1.39-2.4,2.12-3.66.73-1.25,1.44-2.47,2.12-3.66-1.37-.78-2.76-1.58-4.17-2.43-1.41-.84-2.8-1.65-4.17-2.43-.68,1.23-1.39,2.46-2.12,3.69-.73,1.23-1.44,2.46-2.12,3.69-.68-1.23-1.39-2.46-2.12-3.69-.73-1.23-1.44-2.46-2.12-3.69-1.37.78-2.76,1.58-4.17,2.43-1.41.84-2.8,1.65-4.17,2.43.68,1.18,1.39,2.4,2.12,3.66.73,1.25,1.43,2.47,2.12,3.66h-8.47v9.71h8.47c-.68,1.18-1.39,2.4-2.12,3.66-.73,1.25-1.43,2.47-2.12,3.66,1.37.78,2.76,1.58,4.17,2.43,1.41.84,2.8,1.65,4.17,2.43.68-1.23,1.39-2.46,2.12-3.69.73-1.23,1.43-2.46,2.12-3.69.68,1.23,1.39,2.46,2.12,3.69.73,1.23,1.43,2.46,2.12,3.69,1.37-.77,2.76-1.58,4.17-2.43"/>
    <path class="cls-2" d="M568.86,184.58c.48-.29.86-.67,1.16-1.16.29-.49.44-1.02.44-1.59s-.15-1.09-.44-1.57c-.3-.48-.68-.86-1.16-1.15-.48-.28-1.01-.43-1.6-.43s-1.14.14-1.63.43c-.5.29-.89.67-1.18,1.15-.28.48-.43,1-.43,1.57s.14,1.1.43,1.59c.29.49.68.88,1.18,1.16.5.28,1.04.43,1.63.43s1.12-.14,1.6-.43M561.82,175.34c-.43-.76-.98-1.38-1.66-1.86-.68-.48-1.4-.86-2.15-1.16-.75-.3-1.47-.55-2.15-.76-.68-.21-1.24-.45-1.67-.72-.43-.27-.64-.6-.64-1.01,0-.57.36-.98,1.07-1.24.71-.25,1.66-.32,2.85-.18,1.19.13,2.5.5,3.93,1.11v-5.25c-1.71-.49-3.37-.73-4.96-.73s-3.02.25-4.28.73c-1.25.49-2.24,1.21-2.98,2.17-.73.96-1.1,2.13-1.1,3.51,0,1.12.21,2.05.64,2.8.43.74.98,1.34,1.67,1.8.68.46,1.4.84,2.15,1.13.75.3,1.47.56,2.15.78.68.22,1.24.47,1.66.75.43.28.64.63.64,1.05,0,.61-.39,1.04-1.16,1.3-.77.26-1.81.31-3.11.17-1.3-.14-2.75-.5-4.34-1.07v5.25c1.73.47,3.43.73,5.1.78s3.18-.14,4.54-.56c1.35-.43,2.43-1.12,3.24-2.09.8-.97,1.21-2.23,1.21-3.77,0-1.18-.21-2.15-.64-2.92M533.18,179.31c-.72-.5-1.28-1.2-1.68-2.09-.4-.9-.6-1.93-.6-3.12s.2-2.21.6-3.1c.4-.89.96-1.57,1.68-2.06.72-.49,1.57-.73,2.55-.73s1.85.25,2.57.75c.71.5,1.27,1.19,1.66,2.06.4.88.6,1.9.6,3.09s-.2,2.22-.6,3.12c-.4.9-.95,1.59-1.66,2.09-.71.5-1.57.75-2.57.75s-1.83-.25-2.55-.75M539.84,184.2c1.25-.54,2.34-1.3,3.27-2.27.93-.98,1.64-2.13,2.15-3.47.51-1.33.76-2.78.76-4.35s-.26-3.01-.76-4.34c-.51-1.32-1.23-2.47-2.15-3.44-.93-.97-2.02-1.72-3.27-2.26-1.25-.54-2.62-.81-4.11-.81s-2.86.27-4.12.81c-1.26.54-2.35,1.29-3.27,2.26-.92.97-1.63,2.11-2.14,3.44-.51,1.32-.76,2.77-.76,4.34s.25,3.02.76,4.35c.51,1.33,1.22,2.49,2.14,3.47.92.98,2.01,1.74,3.27,2.27,1.26.54,2.64.81,4.12.81s2.86-.27,4.11-.81M510.7,179.31c-.72-.5-1.28-1.2-1.68-2.09-.4-.9-.6-1.93-.6-3.12s.2-2.21.6-3.1c.4-.89.96-1.57,1.68-2.06.72-.49,1.57-.73,2.55-.73s1.85.25,2.57.75c.71.5,1.27,1.19,1.67,2.06.4.88.6,1.9.6,3.09s-.2,2.22-.6,3.12c-.4.9-.95,1.59-1.67,2.09-.71.5-1.57.75-2.57.75s-1.83-.25-2.55-.75M517.36,184.2c1.25-.54,2.34-1.3,3.27-2.27.93-.98,1.64-2.13,2.15-3.47.51-1.33.76-2.78.76-4.35s-.26-3.01-.76-4.34c-.51-1.32-1.23-2.47-2.15-3.44-.93-.97-2.02-1.72-3.27-2.26-1.25-.54-2.62-.81-4.11-.81s-2.86.27-4.12.81c-1.26.54-2.35,1.29-3.27,2.26-.92.97-1.63,2.11-2.14,3.44-.51,1.32-.76,2.77-.76,4.34s.25,3.02.76,4.35c.51,1.33,1.22,2.49,2.14,3.47.92.98,2.01,1.74,3.27,2.27,1.26.54,2.64.81,4.12.81s2.86-.27,4.11-.81M495.48,184.52h5.93v-4.86h-6.51v-15.91h-5.35v20.77h5.93ZM472.54,184.52h2.66v-8.68c1.04,1.43,2.09,2.87,3.15,4.32,1.06,1.46,2.11,2.91,3.15,4.35h6.38c-1.34-1.81-2.7-3.63-4.08-5.47-1.38-1.83-2.73-3.64-4.08-5.44,1.28-1.63,2.58-3.27,3.9-4.93,1.31-1.66,2.61-3.3,3.89-4.93h-6.05c-1.04,1.32-2.08,2.66-3.13,4.02-1.05,1.35-2.09,2.69-3.13,4.02v-8.03h-5.35v20.77h2.69ZM456.76,172.39c.38-1.22.74-2.43,1.08-3.63.35,1.2.7,2.41,1.07,3.63.37,1.22.72,2.43,1.07,3.63h-4.31c.35-1.2.71-2.41,1.08-3.63M450.5,184.52h2.67c.2-.65.4-1.31.58-1.97.18-.66.38-1.32.58-1.97h6.99c.2.65.4,1.31.58,1.97.18.66.38,1.32.58,1.97h5.38c-1.06-3.42-2.12-6.88-3.19-10.39-1.07-3.5-2.13-6.96-3.19-10.39h-7.3c-1.06,3.42-2.12,6.88-3.19,10.39-1.07,3.5-2.13,6.96-3.19,10.39h2.7ZM439.7,169.29c.75.48,1.33,1.14,1.74,1.97.41.84.61,1.78.61,2.84s-.2,2.01-.61,2.86c-.41.84-.99,1.51-1.74,2-.75.49-1.64.73-2.66.73h-2.05v-11.12h2.05c1.02,0,1.9.24,2.66.72M433.35,184.52h3.7c1.51,0,2.89-.26,4.15-.78,1.26-.52,2.36-1.25,3.3-2.2.94-.95,1.66-2.05,2.18-3.31.52-1.26.78-2.64.78-4.12s-.26-2.86-.78-4.11c-.52-1.25-1.25-2.35-2.18-3.28-.94-.94-2.04-1.66-3.3-2.18-1.26-.52-2.65-.78-4.15-.78h-7.39v20.77h3.7ZM404.7,184.52h2.63v-11.73c1.08,1.93,2.17,3.89,3.28,5.86,1.11,1.98,2.2,3.93,3.28,5.86h5.38v-20.77h-5.25v11.73c-1.08-1.93-2.17-3.89-3.28-5.86-1.11-1.97-2.2-3.93-3.28-5.86h-5.38v20.77h2.63ZM398.41,170.54v-6.8h-5.35v13.59c0,1.26-.45,2.04-1.34,2.34s-2.32.17-4.28-.38v5.07c1.99.45,3.68.6,5.07.46,1.39-.14,2.51-.53,3.39-1.18.88-.64,1.51-1.5,1.91-2.58.4-1.08.6-2.32.6-3.73v-6.8ZM382.03,184.52h2.66v-20.77h-5.35v20.77h2.69ZM368.27,184.52h7.41v-4.7h-8.55c1.4-1.87,2.83-3.77,4.28-5.68,1.45-1.91,2.87-3.81,4.28-5.68v-4.7h-14.82v4.7h8.55c-1.4,1.87-2.83,3.77-4.28,5.68-1.45,1.91-2.87,3.81-4.28,5.68v4.7h7.41ZM344.22,169.29c.75.48,1.33,1.14,1.74,1.97.41.84.61,1.78.61,2.84s-.2,2.01-.61,2.86c-.41.84-.99,1.51-1.74,2-.75.49-1.64.73-2.66.73h-2.05v-11.12h2.05c1.02,0,1.9.24,2.66.72M337.87,184.52h3.7c1.51,0,2.89-.26,4.15-.78,1.26-.52,2.36-1.25,3.3-2.2.94-.95,1.66-2.05,2.18-3.31.52-1.26.78-2.64.78-4.12s-.26-2.86-.78-4.11c-.52-1.25-1.25-2.35-2.18-3.28-.94-.94-2.04-1.66-3.3-2.18-1.26-.52-2.65-.78-4.15-.78h-7.39v20.77h3.7ZM315.63,184.52h2.63v-11.73c1.08,1.93,2.17,3.89,3.28,5.86,1.11,1.98,2.2,3.93,3.28,5.86h5.38v-20.77h-5.25v11.73c-1.08-1.93-2.17-3.89-3.28-5.86-1.11-1.97-2.2-3.93-3.28-5.86h-5.38v20.77h2.63ZM299.91,172.39c.38-1.22.74-2.43,1.08-3.63.35,1.2.7,2.41,1.07,3.63.37,1.22.72,2.43,1.07,3.63h-4.31c.35-1.2.71-2.41,1.08-3.63M293.65,184.52h2.67c.2-.65.4-1.31.58-1.97.18-.66.38-1.32.58-1.97h6.99c.2.65.4,1.31.58,1.97.18.66.38,1.32.58,1.97h5.38c-1.06-3.42-2.12-6.88-3.19-10.39-1.07-3.5-2.13-6.96-3.19-10.39h-7.3c-1.06,3.42-2.12,6.88-3.19,10.39-1.07,3.5-2.13,6.96-3.19,10.39h2.7ZM284.11,184.52h5.93v-4.86h-6.51v-15.91h-5.35v20.77h5.93ZM268.18,169.21c.42.43.63.97.63,1.62s-.19,1.17-.58,1.6c-.39.44-.89.66-1.5.66h-2.32v-4.52h2.02c.75,0,1.34.21,1.76.64M261.75,184.52h2.66v-6.96h2.11c.65,1.14,1.3,2.3,1.94,3.48.64,1.18,1.28,2.34,1.91,3.48h5.99c-.82-1.36-1.63-2.74-2.46-4.14-.83-1.39-1.65-2.77-2.46-4.14.83-.59,1.5-1.35,1.99-2.29.49-.94.73-2.01.73-3.21,0-1.4-.32-2.63-.96-3.68-.64-1.05-1.54-1.86-2.7-2.44-1.16-.58-2.51-.87-4.06-.87h-7.36v20.77h2.69ZM249.16,184.52h6.23v-4.76h-7.12v-3.6h6.51v-4.61h-6.51v-3.02h7.12v-4.76h-12.46v20.77h6.23ZM232.24,169.29c.75.48,1.33,1.14,1.74,1.97.41.84.61,1.78.61,2.84s-.2,2.01-.61,2.86c-.41.84-.99,1.51-1.74,2-.75.49-1.64.73-2.66.73h-2.05v-11.12h2.05c1.02,0,1.9.24,2.66.72M225.89,184.52h3.7c1.51,0,2.89-.26,4.15-.78,1.26-.52,2.36-1.25,3.3-2.2.94-.95,1.66-2.05,2.18-3.31.52-1.26.78-2.64.78-4.12s-.26-2.86-.78-4.11c-.52-1.25-1.25-2.35-2.18-3.28-.94-.94-2.04-1.66-3.3-2.18-1.26-.52-2.65-.78-4.15-.78h-7.39v20.77h3.7ZM212.3,184.52h6.23v-4.76h-7.12v-3.6h6.51v-4.61h-6.51v-3.02h7.12v-4.76h-12.46v20.77h6.23ZM187.52,184.52h2.63v-11.73c1.08,1.93,2.17,3.89,3.28,5.86,1.11,1.98,2.21,3.93,3.28,5.86h5.38v-20.77h-5.25v11.73c-1.08-1.93-2.17-3.89-3.28-5.86-1.11-1.97-2.21-3.93-3.28-5.86h-5.38v20.77h2.63ZM159.94,184.52h2.63v-11.73c1.08,1.93,2.17,3.89,3.28,5.86,1.11,1.98,2.2,3.93,3.28,5.86h5.38v-20.77h-5.25v11.73c-1.08-1.93-2.17-3.89-3.28-5.86-1.11-1.97-2.21-3.93-3.28-5.86h-5.38v20.77h2.63ZM150.53,184.52h2.66v-20.77h-5.35v20.77h2.69ZM122.74,184.52h2.63v-11.73c1.08,1.93,2.17,3.89,3.28,5.86,1.11,1.98,2.2,3.93,3.28,5.86h5.38v-20.77h-5.25v11.73c-1.08-1.93-2.17-3.89-3.28-5.86-1.11-1.97-2.2-3.93-3.28-5.86h-5.38v20.77h2.63ZM110.21,184.52h6.23v-4.76h-7.12v-3.6h6.51v-4.61h-6.51v-3.02h7.12v-4.76h-12.46v20.77h6.23ZM100.56,175.34c-.43-.76-.98-1.38-1.67-1.86-.68-.48-1.4-.86-2.15-1.16-.75-.3-1.47-.55-2.15-.76-.68-.21-1.24-.45-1.66-.72-.43-.27-.64-.6-.64-1.01,0-.57.36-.98,1.07-1.24.71-.25,1.66-.32,2.86-.18,1.19.13,2.5.5,3.93,1.11v-5.25c-1.71-.49-3.37-.73-4.96-.73s-3.02.25-4.28.73c-1.25.49-2.24,1.21-2.98,2.17-.73.96-1.1,2.13-1.1,3.51,0,1.12.21,2.05.64,2.8.43.74.98,1.34,1.67,1.8.68.46,1.4.84,2.15,1.13.75.3,1.47.56,2.15.78.68.22,1.24.47,1.66.75.43.28.64.63.64,1.05,0,.61-.39,1.04-1.16,1.3-.77.26-1.81.31-3.11.17-1.3-.14-2.75-.5-4.34-1.07v5.25c1.73.47,3.43.73,5.1.78s3.18-.14,4.54-.56c1.35-.43,2.43-1.12,3.24-2.09.8-.97,1.21-2.23,1.21-3.77,0-1.18-.21-2.15-.64-2.92M69.01,184.52h2.63v-11.73c1.08,1.93,2.17,3.89,3.28,5.86,1.11,1.98,2.2,3.93,3.28,5.86h5.38v-20.77h-5.25v11.73c-1.08-1.93-2.17-3.89-3.28-5.86-1.11-1.97-2.2-3.93-3.28-5.86h-5.38v20.77h2.63ZM56.49,184.52h6.23v-4.76h-7.12v-3.6h6.51v-4.61h-6.51v-3.02h7.12v-4.76h-12.46v20.77h6.23ZM26.58,184.52h2.51v-13.84c.61,2.28,1.22,4.59,1.83,6.92.61,2.33,1.22,4.64,1.83,6.92h4.64c.61-2.32,1.23-4.67,1.86-7.04.63-2.37,1.25-4.72,1.86-7.04v14.08h5.16c-.02-3.42-.04-6.88-.06-10.39-.02-3.5-.04-6.96-.06-10.39h-7.55c-.57,2.08-1.15,4.18-1.73,6.31-.58,2.13-1.16,4.23-1.73,6.31-.57-2.08-1.15-4.18-1.73-6.31-.58-2.13-1.17-4.23-1.76-6.31h-7.64v20.77h2.54Z"/>
    <path class="cls-2" d="M504.16,115.9c-3.39-2.84-5.99-6.87-7.81-12.08-1.82-5.21-2.72-11.26-2.72-18.17s.91-13.08,2.72-18.17c1.82-5.09,4.42-9.02,7.81-11.81,3.39-2.79,7.45-4.18,12.17-4.18s8.93,1.39,12.26,4.18c3.33,2.79,5.9,6.75,7.72,11.9,1.82,5.15,2.72,11.17,2.72,18.07s-.91,12.96-2.72,18.17c-1.82,5.21-4.39,9.24-7.72,12.08-3.33,2.85-7.42,4.27-12.26,4.27s-8.78-1.42-12.17-4.27M538.22,145.32c6.6-3.21,12.32-7.72,17.17-13.53,4.84-5.81,8.57-12.65,11.17-20.53,2.6-7.87,3.91-16.41,3.91-25.61s-1.3-17.71-3.91-25.52c-2.61-7.81-6.33-14.59-11.17-20.35-4.84-5.75-10.57-10.23-17.17-13.44-6.6-3.21-13.9-4.81-21.89-4.81s-15.32,1.61-21.98,4.81c-6.66,3.21-12.38,7.69-17.17,13.44-4.79,5.75-8.48,12.53-11.08,20.35-2.61,7.81-3.91,16.32-3.91,25.52s1.3,17.74,3.91,25.61c2.6,7.87,6.29,14.71,11.08,20.53,4.78,5.81,10.5,10.33,17.17,13.53,6.66,3.21,13.99,4.81,21.98,4.81s15.29-1.61,21.89-4.81M386.81,115.9c-3.39-2.84-5.99-6.87-7.81-12.08-1.82-5.21-2.73-11.26-2.73-18.17s.91-13.08,2.73-18.17c1.82-5.09,4.42-9.02,7.81-11.81,3.39-2.79,7.45-4.18,12.17-4.18s8.93,1.39,12.26,4.18c3.33,2.79,5.9,6.75,7.72,11.9,1.82,5.15,2.73,11.17,2.73,18.07s-.91,12.96-2.73,18.17c-1.82,5.21-4.39,9.24-7.72,12.08-3.33,2.85-7.42,4.27-12.26,4.27s-8.78-1.42-12.17-4.27M420.87,145.32c6.6-3.21,12.32-7.72,17.17-13.53,4.84-5.81,8.57-12.65,11.17-20.53,2.6-7.87,3.91-16.41,3.91-25.61s-1.3-17.71-3.91-25.52c-2.61-7.81-6.33-14.59-11.17-20.35-4.85-5.75-10.57-10.23-17.17-13.44-6.6-3.21-13.9-4.81-21.89-4.81s-15.32,1.61-21.98,4.81c-6.66,3.21-12.38,7.69-17.17,13.44-4.79,5.75-8.48,12.53-11.08,20.35-2.61,7.81-3.91,16.32-3.91,25.52s1.3,17.74,3.91,25.61c2.6,7.87,6.29,14.71,11.08,20.53,4.78,5.81,10.51,10.33,17.17,13.53,6.66,3.21,13.99,4.81,21.98,4.81s15.29-1.61,21.89-4.81M269.46,115.9c-3.39-2.84-5.99-6.87-7.81-12.08-1.82-5.21-2.73-11.26-2.73-18.17s.91-13.08,2.73-18.17c1.82-5.09,4.42-9.02,7.81-11.81,3.39-2.79,7.45-4.18,12.17-4.18s8.93,1.39,12.26,4.18c3.33,2.79,5.9,6.75,7.72,11.9,1.82,5.15,2.72,11.17,2.72,18.07s-.91,12.96-2.72,18.17c-1.82,5.21-4.39,9.24-7.72,12.08-3.33,2.85-7.42,4.27-12.26,4.27s-8.78-1.42-12.17-4.27M303.52,145.32c6.6-3.21,12.32-7.72,17.17-13.53,4.84-5.81,8.57-12.65,11.17-20.53,2.6-7.87,3.9-16.41,3.9-25.61s-1.3-17.71-3.9-25.52c-2.61-7.81-6.33-14.59-11.17-20.35-4.85-5.75-10.57-10.23-17.17-13.44-6.6-3.21-13.9-4.81-21.89-4.81s-15.32,1.61-21.98,4.81c-6.66,3.21-12.38,7.69-17.17,13.44-4.79,5.75-8.48,12.53-11.08,20.35-2.6,7.81-3.9,16.32-3.9,25.52s1.3,17.74,3.9,25.61c2.6,7.87,6.3,14.71,11.08,20.53,4.78,5.81,10.5,10.33,17.17,13.53,6.66,3.21,13.99,4.81,21.98,4.81s15.29-1.61,21.89-4.81M213.42,147.96c2.84-1.69,5.15-4,6.9-6.9,1.75-2.91,2.63-6.05,2.63-9.45s-.88-6.51-2.63-9.35c-1.76-2.84-4.06-5.11-6.9-6.81-2.85-1.69-6.03-2.54-9.54-2.54s-6.75.85-9.72,2.54c-2.97,1.7-5.3,3.97-6.99,6.81-1.7,2.85-2.54,5.97-2.54,9.35s.85,6.54,2.54,9.45c1.69,2.91,4.02,5.21,6.99,6.9,2.97,1.69,6.21,2.54,9.72,2.54s6.69-.85,9.54-2.54M140.85,27.61c-8.96,1.88-17.8,3.79-26.52,5.72v29.43c3.51-.73,7.05-1.48,10.63-2.27,3.57-.79,7.11-1.54,10.63-2.27v89.37h31.79V21.89c-8.72,1.94-17.56,3.85-26.52,5.72M31.31,87.74v10.63c8.36-.73,15.83-.82,22.43-.27,6.6.54,11.78,1.79,15.53,3.72,3.75,1.94,5.63,4.79,5.63,8.54s-2.39,6.57-7.18,8.08c-4.79,1.52-11.05,1.85-18.8,1-7.75-.85-16.05-2.84-24.89-6v30.34c11.02,3.27,21.46,5.02,31.34,5.27,9.87.24,18.62-1.03,26.25-3.81,7.63-2.78,13.62-7.08,17.98-12.9s6.54-13.2,6.54-22.16c0-9.45-2.7-17.29-8.08-23.53-5.39-6.24-13.05-10.32-22.98-12.26,4.36-3.51,8.72-7.08,13.08-10.72,4.36-3.63,8.72-7.2,13.08-10.72v-28.88H24.41v28.88h37.6c-5.09,4-10.2,8.05-15.35,12.17-5.15,4.12-10.26,8.17-15.35,12.17v10.44Z"/>
  </g>
</svg>